<mxfile host="app.diagrams.net" modified="2023-10-11T08:42:38.866Z" agent="Mozilla/5.0 (Windows NT 10.0; Win64; x64) AppleWebKit/537.36 (KHTML, like Gecko) Chrome/117.0.0.0 Safari/537.36" etag="PdA9XJnq0YiuxrH5FnVd" version="22.0.4" type="device">
  <diagram id="R2lEEEUBdFMjLlhIrx00" name="Page-1">
    <mxGraphModel dx="3078" dy="2300" grid="1" gridSize="10" guides="1" tooltips="1" connect="1" arrows="1" fold="1" page="1" pageScale="1" pageWidth="850" pageHeight="1100" math="0" shadow="0" extFonts="Permanent Marker^https://fonts.googleapis.com/css?family=Permanent+Marker">
      <root>
        <mxCell id="0" />
        <mxCell id="1" parent="0" />
        <mxCell id="xP0yGyIXmFYPEQAslgDD-1" value="cliente" style="rounded=0;whiteSpace=wrap;html=1;fillColor=#d5e8d4;strokeColor=#82b366;" parent="1" vertex="1">
          <mxGeometry x="270" y="240" width="120" height="60" as="geometry" />
        </mxCell>
        <mxCell id="xP0yGyIXmFYPEQAslgDD-2" value="telefono" style="ellipse;whiteSpace=wrap;html=1;fillColor=#d5e8d4;strokeColor=#82b366;" parent="1" vertex="1">
          <mxGeometry x="-20" y="190" width="120" height="40" as="geometry" />
        </mxCell>
        <mxCell id="xP0yGyIXmFYPEQAslgDD-3" value="&lt;b&gt;&lt;u&gt;cif&lt;/u&gt;&lt;/b&gt;" style="ellipse;whiteSpace=wrap;html=1;fillColor=#d5e8d4;strokeColor=#82b366;" parent="1" vertex="1">
          <mxGeometry x="-10" y="120" width="120" height="40" as="geometry" />
        </mxCell>
        <mxCell id="xP0yGyIXmFYPEQAslgDD-4" value="nombre_completo" style="ellipse;whiteSpace=wrap;html=1;fillColor=#d5e8d4;strokeColor=#82b366;" parent="1" vertex="1">
          <mxGeometry x="-30" y="315" width="120" height="40" as="geometry" />
        </mxCell>
        <mxCell id="xP0yGyIXmFYPEQAslgDD-5" value="cp" style="ellipse;whiteSpace=wrap;html=1;fillColor=#d5e8d4;strokeColor=#82b366;" parent="1" vertex="1">
          <mxGeometry x="-210" y="350" width="120" height="40" as="geometry" />
        </mxCell>
        <mxCell id="xP0yGyIXmFYPEQAslgDD-6" value="provincia" style="ellipse;whiteSpace=wrap;html=1;fillColor=#d5e8d4;strokeColor=#82b366;" parent="1" vertex="1">
          <mxGeometry x="-210" y="290" width="120" height="40" as="geometry" />
        </mxCell>
        <mxCell id="xP0yGyIXmFYPEQAslgDD-7" value="domicilio" style="ellipse;whiteSpace=wrap;html=1;fillColor=#d5e8d4;strokeColor=#82b366;" parent="1" vertex="1">
          <mxGeometry x="-30" y="250" width="120" height="40" as="geometry" />
        </mxCell>
        <mxCell id="xP0yGyIXmFYPEQAslgDD-8" value="calle" style="ellipse;whiteSpace=wrap;html=1;fillColor=#d5e8d4;strokeColor=#82b366;" parent="1" vertex="1">
          <mxGeometry x="-220" y="190" width="120" height="40" as="geometry" />
        </mxCell>
        <mxCell id="xP0yGyIXmFYPEQAslgDD-9" value="numero" style="ellipse;whiteSpace=wrap;html=1;fillColor=#d5e8d4;strokeColor=#82b366;" parent="1" vertex="1">
          <mxGeometry x="-220" y="240" width="120" height="40" as="geometry" />
        </mxCell>
        <mxCell id="xP0yGyIXmFYPEQAslgDD-11" value="" style="endArrow=none;html=1;rounded=0;entryX=0;entryY=0.5;entryDx=0;entryDy=0;exitX=1;exitY=0.5;exitDx=0;exitDy=0;" parent="1" source="xP0yGyIXmFYPEQAslgDD-8" target="xP0yGyIXmFYPEQAslgDD-7" edge="1">
          <mxGeometry width="50" height="50" relative="1" as="geometry">
            <mxPoint x="-100" y="230" as="sourcePoint" />
            <mxPoint x="-50" y="180" as="targetPoint" />
          </mxGeometry>
        </mxCell>
        <mxCell id="xP0yGyIXmFYPEQAslgDD-12" value="" style="endArrow=none;html=1;rounded=0;entryX=0;entryY=0.5;entryDx=0;entryDy=0;exitX=1;exitY=0.5;exitDx=0;exitDy=0;" parent="1" source="xP0yGyIXmFYPEQAslgDD-9" target="xP0yGyIXmFYPEQAslgDD-7" edge="1">
          <mxGeometry width="50" height="50" relative="1" as="geometry">
            <mxPoint x="-80" y="340" as="sourcePoint" />
            <mxPoint x="-30" y="290" as="targetPoint" />
          </mxGeometry>
        </mxCell>
        <mxCell id="xP0yGyIXmFYPEQAslgDD-13" value="" style="endArrow=none;html=1;rounded=0;entryX=0;entryY=0.5;entryDx=0;entryDy=0;exitX=0.992;exitY=0.3;exitDx=0;exitDy=0;exitPerimeter=0;" parent="1" source="xP0yGyIXmFYPEQAslgDD-6" target="xP0yGyIXmFYPEQAslgDD-7" edge="1">
          <mxGeometry width="50" height="50" relative="1" as="geometry">
            <mxPoint x="-90" y="310" as="sourcePoint" />
            <mxPoint x="-40" y="260" as="targetPoint" />
          </mxGeometry>
        </mxCell>
        <mxCell id="xP0yGyIXmFYPEQAslgDD-14" value="" style="endArrow=none;html=1;rounded=0;exitX=1;exitY=0.35;exitDx=0;exitDy=0;exitPerimeter=0;" parent="1" source="xP0yGyIXmFYPEQAslgDD-5" edge="1">
          <mxGeometry width="50" height="50" relative="1" as="geometry">
            <mxPoint x="-80" y="320" as="sourcePoint" />
            <mxPoint x="-30" y="270" as="targetPoint" />
          </mxGeometry>
        </mxCell>
        <mxCell id="xP0yGyIXmFYPEQAslgDD-15" value="nombre" style="ellipse;whiteSpace=wrap;html=1;fillColor=#d5e8d4;strokeColor=#82b366;" parent="1" vertex="1">
          <mxGeometry x="-90" y="405" width="90" height="30" as="geometry" />
        </mxCell>
        <mxCell id="xP0yGyIXmFYPEQAslgDD-16" value="" style="endArrow=none;html=1;rounded=0;entryX=0;entryY=0;entryDx=0;entryDy=0;" parent="1" target="xP0yGyIXmFYPEQAslgDD-1" edge="1">
          <mxGeometry width="50" height="50" relative="1" as="geometry">
            <mxPoint x="110" y="140" as="sourcePoint" />
            <mxPoint x="200" y="220" as="targetPoint" />
          </mxGeometry>
        </mxCell>
        <mxCell id="xP0yGyIXmFYPEQAslgDD-17" value="" style="endArrow=none;html=1;rounded=0;entryX=0;entryY=0;entryDx=0;entryDy=0;exitX=1;exitY=0.5;exitDx=0;exitDy=0;" parent="1" source="xP0yGyIXmFYPEQAslgDD-2" target="xP0yGyIXmFYPEQAslgDD-1" edge="1">
          <mxGeometry width="50" height="50" relative="1" as="geometry">
            <mxPoint x="120" y="150" as="sourcePoint" />
            <mxPoint x="200" y="235" as="targetPoint" />
          </mxGeometry>
        </mxCell>
        <mxCell id="xP0yGyIXmFYPEQAslgDD-18" value="" style="endArrow=none;html=1;rounded=0;exitX=1;exitY=0.5;exitDx=0;exitDy=0;" parent="1" source="xP0yGyIXmFYPEQAslgDD-7" edge="1">
          <mxGeometry width="50" height="50" relative="1" as="geometry">
            <mxPoint x="110" y="220" as="sourcePoint" />
            <mxPoint x="270" y="270" as="targetPoint" />
          </mxGeometry>
        </mxCell>
        <mxCell id="xP0yGyIXmFYPEQAslgDD-19" value="" style="endArrow=none;html=1;rounded=0;entryX=0;entryY=0.5;entryDx=0;entryDy=0;exitX=1;exitY=0.5;exitDx=0;exitDy=0;" parent="1" source="xP0yGyIXmFYPEQAslgDD-4" target="xP0yGyIXmFYPEQAslgDD-1" edge="1">
          <mxGeometry width="50" height="50" relative="1" as="geometry">
            <mxPoint x="100" y="280" as="sourcePoint" />
            <mxPoint x="200" y="280" as="targetPoint" />
          </mxGeometry>
        </mxCell>
        <mxCell id="xP0yGyIXmFYPEQAslgDD-20" value="apellido1" style="ellipse;whiteSpace=wrap;html=1;fillColor=#d5e8d4;strokeColor=#82b366;" parent="1" vertex="1">
          <mxGeometry x="10" y="405" width="100" height="30" as="geometry" />
        </mxCell>
        <mxCell id="xP0yGyIXmFYPEQAslgDD-21" value="apellido2" style="ellipse;whiteSpace=wrap;html=1;fillColor=#d5e8d4;strokeColor=#82b366;" parent="1" vertex="1">
          <mxGeometry x="120" y="410" width="100" height="30" as="geometry" />
        </mxCell>
        <mxCell id="xP0yGyIXmFYPEQAslgDD-22" value="" style="endArrow=none;html=1;rounded=0;exitX=0.5;exitY=0;exitDx=0;exitDy=0;entryX=0.5;entryY=1;entryDx=0;entryDy=0;" parent="1" source="xP0yGyIXmFYPEQAslgDD-15" target="xP0yGyIXmFYPEQAslgDD-4" edge="1">
          <mxGeometry width="50" height="50" relative="1" as="geometry">
            <mxPoint x="-90" y="405" as="sourcePoint" />
            <mxPoint x="-40" y="355" as="targetPoint" />
          </mxGeometry>
        </mxCell>
        <mxCell id="xP0yGyIXmFYPEQAslgDD-23" value="" style="endArrow=none;html=1;rounded=0;exitX=0.5;exitY=0;exitDx=0;exitDy=0;entryX=0.5;entryY=1;entryDx=0;entryDy=0;" parent="1" source="xP0yGyIXmFYPEQAslgDD-20" target="xP0yGyIXmFYPEQAslgDD-4" edge="1">
          <mxGeometry width="50" height="50" relative="1" as="geometry">
            <mxPoint x="-35" y="415" as="sourcePoint" />
            <mxPoint x="-2" y="359" as="targetPoint" />
          </mxGeometry>
        </mxCell>
        <mxCell id="xP0yGyIXmFYPEQAslgDD-24" value="" style="endArrow=none;html=1;rounded=0;exitX=0.5;exitY=0;exitDx=0;exitDy=0;entryX=0.5;entryY=1;entryDx=0;entryDy=0;" parent="1" source="xP0yGyIXmFYPEQAslgDD-21" target="xP0yGyIXmFYPEQAslgDD-4" edge="1">
          <mxGeometry width="50" height="50" relative="1" as="geometry">
            <mxPoint x="170" y="405" as="sourcePoint" />
            <mxPoint x="40" y="365" as="targetPoint" />
          </mxGeometry>
        </mxCell>
        <mxCell id="xP0yGyIXmFYPEQAslgDD-25" value="coche" style="rounded=0;whiteSpace=wrap;html=1;fillColor=#e1d5e7;strokeColor=#9673a6;" parent="1" vertex="1">
          <mxGeometry x="850" y="240" width="120" height="60" as="geometry" />
        </mxCell>
        <mxCell id="xP0yGyIXmFYPEQAslgDD-26" value="matricula" style="ellipse;whiteSpace=wrap;html=1;fillColor=#e1d5e7;strokeColor=#9673a6;" parent="1" vertex="1">
          <mxGeometry x="1020" y="40" width="110" height="40" as="geometry" />
        </mxCell>
        <mxCell id="xP0yGyIXmFYPEQAslgDD-28" value="marca" style="ellipse;whiteSpace=wrap;html=1;fillColor=#e1d5e7;strokeColor=#9673a6;" parent="1" vertex="1">
          <mxGeometry x="1090" y="80" width="110" height="40" as="geometry" />
        </mxCell>
        <mxCell id="xP0yGyIXmFYPEQAslgDD-29" value="modelo" style="ellipse;whiteSpace=wrap;html=1;fillColor=#e1d5e7;strokeColor=#9673a6;" parent="1" vertex="1">
          <mxGeometry x="1090" y="130" width="110" height="40" as="geometry" />
        </mxCell>
        <mxCell id="xP0yGyIXmFYPEQAslgDD-30" value="color" style="ellipse;whiteSpace=wrap;html=1;fillColor=#e1d5e7;strokeColor=#9673a6;" parent="1" vertex="1">
          <mxGeometry x="1090" y="180" width="110" height="40" as="geometry" />
        </mxCell>
        <mxCell id="xP0yGyIXmFYPEQAslgDD-32" value="anyo_fabricacion" style="ellipse;whiteSpace=wrap;html=1;fillColor=#e1d5e7;strokeColor=#9673a6;" parent="1" vertex="1">
          <mxGeometry x="1090" y="280" width="110" height="40" as="geometry" />
        </mxCell>
        <mxCell id="xP0yGyIXmFYPEQAslgDD-33" value="kilometros" style="ellipse;whiteSpace=wrap;html=1;fillColor=#e1d5e7;strokeColor=#9673a6;" parent="1" vertex="1">
          <mxGeometry x="1090" y="330" width="110" height="40" as="geometry" />
        </mxCell>
        <mxCell id="xP0yGyIXmFYPEQAslgDD-34" value="&lt;b&gt;&lt;u&gt;num_bastidor&lt;/u&gt;&lt;/b&gt;" style="ellipse;whiteSpace=wrap;html=1;fillColor=#e1d5e7;strokeColor=#9673a6;" parent="1" vertex="1">
          <mxGeometry x="1090" y="230" width="110" height="40" as="geometry" />
        </mxCell>
        <mxCell id="40LrFBO8-NNQxUWs60Eh-1" value="vendedor_coche" style="ellipse;whiteSpace=wrap;html=1;fillColor=#e1d5e7;strokeColor=#9673a6;" parent="1" vertex="1">
          <mxGeometry x="1000" y="410" width="110" height="40" as="geometry" />
        </mxCell>
        <mxCell id="40LrFBO8-NNQxUWs60Eh-2" value="desperfectos" style="ellipse;whiteSpace=wrap;html=1;fillColor=#e1d5e7;strokeColor=#9673a6;" parent="1" vertex="1">
          <mxGeometry x="1090" y="380" width="110" height="40" as="geometry" />
        </mxCell>
        <mxCell id="40LrFBO8-NNQxUWs60Eh-3" value="" style="endArrow=none;html=1;rounded=0;entryX=0.045;entryY=0.8;entryDx=0;entryDy=0;entryPerimeter=0;exitX=1;exitY=0;exitDx=0;exitDy=0;" parent="1" source="xP0yGyIXmFYPEQAslgDD-25" target="xP0yGyIXmFYPEQAslgDD-26" edge="1">
          <mxGeometry width="50" height="50" relative="1" as="geometry">
            <mxPoint x="950" y="160" as="sourcePoint" />
            <mxPoint x="1000" y="110" as="targetPoint" />
          </mxGeometry>
        </mxCell>
        <mxCell id="40LrFBO8-NNQxUWs60Eh-4" value="" style="endArrow=none;html=1;rounded=0;entryX=0;entryY=0.5;entryDx=0;entryDy=0;" parent="1" target="xP0yGyIXmFYPEQAslgDD-28" edge="1">
          <mxGeometry width="50" height="50" relative="1" as="geometry">
            <mxPoint x="970" y="250" as="sourcePoint" />
            <mxPoint x="1035" y="82" as="targetPoint" />
          </mxGeometry>
        </mxCell>
        <mxCell id="40LrFBO8-NNQxUWs60Eh-5" value="" style="endArrow=none;html=1;rounded=0;entryX=0;entryY=0.5;entryDx=0;entryDy=0;exitX=1;exitY=0.25;exitDx=0;exitDy=0;" parent="1" source="xP0yGyIXmFYPEQAslgDD-25" target="xP0yGyIXmFYPEQAslgDD-29" edge="1">
          <mxGeometry width="50" height="50" relative="1" as="geometry">
            <mxPoint x="990" y="200" as="sourcePoint" />
            <mxPoint x="1100" y="110" as="targetPoint" />
          </mxGeometry>
        </mxCell>
        <mxCell id="40LrFBO8-NNQxUWs60Eh-6" value="" style="endArrow=none;html=1;rounded=0;exitX=1;exitY=0.5;exitDx=0;exitDy=0;" parent="1" source="xP0yGyIXmFYPEQAslgDD-25" target="xP0yGyIXmFYPEQAslgDD-30" edge="1">
          <mxGeometry width="50" height="50" relative="1" as="geometry">
            <mxPoint x="990" y="215" as="sourcePoint" />
            <mxPoint x="1100" y="160" as="targetPoint" />
          </mxGeometry>
        </mxCell>
        <mxCell id="40LrFBO8-NNQxUWs60Eh-7" value="" style="endArrow=none;html=1;rounded=0;exitX=1;exitY=0.5;exitDx=0;exitDy=0;entryX=0;entryY=0.5;entryDx=0;entryDy=0;" parent="1" source="xP0yGyIXmFYPEQAslgDD-25" target="xP0yGyIXmFYPEQAslgDD-34" edge="1">
          <mxGeometry width="50" height="50" relative="1" as="geometry">
            <mxPoint x="990" y="230" as="sourcePoint" />
            <mxPoint x="1103" y="216" as="targetPoint" />
          </mxGeometry>
        </mxCell>
        <mxCell id="40LrFBO8-NNQxUWs60Eh-8" value="" style="endArrow=none;html=1;rounded=0;exitX=1;exitY=0.75;exitDx=0;exitDy=0;entryX=0;entryY=0.5;entryDx=0;entryDy=0;" parent="1" source="xP0yGyIXmFYPEQAslgDD-25" target="xP0yGyIXmFYPEQAslgDD-32" edge="1">
          <mxGeometry width="50" height="50" relative="1" as="geometry">
            <mxPoint x="990" y="245" as="sourcePoint" />
            <mxPoint x="1100" y="260" as="targetPoint" />
          </mxGeometry>
        </mxCell>
        <mxCell id="40LrFBO8-NNQxUWs60Eh-9" value="" style="endArrow=none;html=1;rounded=0;entryX=0;entryY=0.5;entryDx=0;entryDy=0;exitX=1;exitY=0.75;exitDx=0;exitDy=0;" parent="1" source="xP0yGyIXmFYPEQAslgDD-25" target="xP0yGyIXmFYPEQAslgDD-33" edge="1">
          <mxGeometry width="50" height="50" relative="1" as="geometry">
            <mxPoint x="970" y="300" as="sourcePoint" />
            <mxPoint x="1100" y="310" as="targetPoint" />
          </mxGeometry>
        </mxCell>
        <mxCell id="40LrFBO8-NNQxUWs60Eh-10" value="" style="endArrow=none;html=1;rounded=0;entryX=-0.009;entryY=0.325;entryDx=0;entryDy=0;entryPerimeter=0;exitX=1;exitY=1;exitDx=0;exitDy=0;" parent="1" source="xP0yGyIXmFYPEQAslgDD-25" target="40LrFBO8-NNQxUWs60Eh-2" edge="1">
          <mxGeometry width="50" height="50" relative="1" as="geometry">
            <mxPoint x="969" y="260" as="sourcePoint" />
            <mxPoint x="1100" y="360" as="targetPoint" />
          </mxGeometry>
        </mxCell>
        <mxCell id="40LrFBO8-NNQxUWs60Eh-11" value="" style="endArrow=none;html=1;rounded=0;entryX=0.5;entryY=0;entryDx=0;entryDy=0;exitX=1;exitY=1;exitDx=0;exitDy=0;" parent="1" source="xP0yGyIXmFYPEQAslgDD-25" target="40LrFBO8-NNQxUWs60Eh-1" edge="1">
          <mxGeometry width="50" height="50" relative="1" as="geometry">
            <mxPoint x="959" y="260" as="sourcePoint" />
            <mxPoint x="1099" y="403" as="targetPoint" />
          </mxGeometry>
        </mxCell>
        <mxCell id="40LrFBO8-NNQxUWs60Eh-12" value="empleados" style="rounded=0;whiteSpace=wrap;html=1;fillColor=#ffe6cc;strokeColor=#d79b00;" parent="1" vertex="1">
          <mxGeometry x="794" y="640" width="120" height="60" as="geometry" />
        </mxCell>
        <mxCell id="40LrFBO8-NNQxUWs60Eh-13" value="nombre_completo" style="ellipse;whiteSpace=wrap;html=1;fillColor=#ffe6cc;strokeColor=#d79b00;" parent="1" vertex="1">
          <mxGeometry x="600" y="750" width="110" height="40" as="geometry" />
        </mxCell>
        <mxCell id="40LrFBO8-NNQxUWs60Eh-14" value="&lt;b&gt;&lt;u&gt;dni&lt;/u&gt;&lt;/b&gt;" style="ellipse;whiteSpace=wrap;html=1;fillColor=#ffe6cc;strokeColor=#d79b00;" parent="1" vertex="1">
          <mxGeometry x="560" y="680" width="110" height="40" as="geometry" />
        </mxCell>
        <mxCell id="40LrFBO8-NNQxUWs60Eh-15" value="fecha_nacimiento" style="ellipse;whiteSpace=wrap;html=1;fillColor=#ffe6cc;strokeColor=#d79b00;" parent="1" vertex="1">
          <mxGeometry x="740" y="770" width="110" height="40" as="geometry" />
        </mxCell>
        <mxCell id="40LrFBO8-NNQxUWs60Eh-16" value="contratacion" style="ellipse;whiteSpace=wrap;html=1;fillColor=#ffe6cc;strokeColor=#d79b00;" parent="1" vertex="1">
          <mxGeometry x="870" y="770" width="110" height="40" as="geometry" />
        </mxCell>
        <mxCell id="40LrFBO8-NNQxUWs60Eh-17" value="salario_base" style="ellipse;whiteSpace=wrap;html=1;fillColor=#ffe6cc;strokeColor=#d79b00;" parent="1" vertex="1">
          <mxGeometry x="1000" y="740" width="110" height="40" as="geometry" />
        </mxCell>
        <mxCell id="40LrFBO8-NNQxUWs60Eh-18" value="porcentage_comision" style="ellipse;whiteSpace=wrap;html=1;fillColor=#ffe6cc;strokeColor=#d79b00;" parent="1" vertex="1">
          <mxGeometry x="1060" y="680" width="130" height="40" as="geometry" />
        </mxCell>
        <mxCell id="40LrFBO8-NNQxUWs60Eh-21" value="1 apellido" style="ellipse;whiteSpace=wrap;html=1;fillColor=#ffe6cc;strokeColor=#d79b00;" parent="1" vertex="1">
          <mxGeometry x="580" y="860" width="90" height="30" as="geometry" />
        </mxCell>
        <mxCell id="40LrFBO8-NNQxUWs60Eh-22" value="nombre" style="ellipse;whiteSpace=wrap;html=1;fillColor=#ffe6cc;strokeColor=#d79b00;" parent="1" vertex="1">
          <mxGeometry x="500" y="830" width="90" height="30" as="geometry" />
        </mxCell>
        <mxCell id="40LrFBO8-NNQxUWs60Eh-23" value="2 apellido" style="ellipse;whiteSpace=wrap;html=1;fillColor=#ffe6cc;strokeColor=#d79b00;" parent="1" vertex="1">
          <mxGeometry x="670" y="830" width="90" height="30" as="geometry" />
        </mxCell>
        <mxCell id="40LrFBO8-NNQxUWs60Eh-24" value="" style="endArrow=none;html=1;rounded=0;entryX=0;entryY=1;entryDx=0;entryDy=0;exitX=0.5;exitY=0;exitDx=0;exitDy=0;" parent="1" source="40LrFBO8-NNQxUWs60Eh-22" target="40LrFBO8-NNQxUWs60Eh-13" edge="1">
          <mxGeometry width="50" height="50" relative="1" as="geometry">
            <mxPoint x="480" y="850" as="sourcePoint" />
            <mxPoint x="530" y="800" as="targetPoint" />
          </mxGeometry>
        </mxCell>
        <mxCell id="40LrFBO8-NNQxUWs60Eh-26" value="" style="endArrow=none;html=1;rounded=0;entryX=0.5;entryY=1;entryDx=0;entryDy=0;exitX=0.5;exitY=0;exitDx=0;exitDy=0;" parent="1" source="40LrFBO8-NNQxUWs60Eh-21" target="40LrFBO8-NNQxUWs60Eh-13" edge="1">
          <mxGeometry width="50" height="50" relative="1" as="geometry">
            <mxPoint x="495" y="870" as="sourcePoint" />
            <mxPoint x="557" y="807" as="targetPoint" />
          </mxGeometry>
        </mxCell>
        <mxCell id="40LrFBO8-NNQxUWs60Eh-27" value="" style="endArrow=none;html=1;rounded=0;entryX=0.726;entryY=1.01;entryDx=0;entryDy=0;exitX=0.5;exitY=0;exitDx=0;exitDy=0;entryPerimeter=0;" parent="1" source="40LrFBO8-NNQxUWs60Eh-23" target="40LrFBO8-NNQxUWs60Eh-13" edge="1">
          <mxGeometry width="50" height="50" relative="1" as="geometry">
            <mxPoint x="595" y="870" as="sourcePoint" />
            <mxPoint x="605" y="820" as="targetPoint" />
          </mxGeometry>
        </mxCell>
        <mxCell id="40LrFBO8-NNQxUWs60Eh-28" value="" style="endArrow=none;html=1;rounded=0;entryX=0;entryY=1;entryDx=0;entryDy=0;exitX=1;exitY=0.5;exitDx=0;exitDy=0;" parent="1" source="40LrFBO8-NNQxUWs60Eh-14" target="40LrFBO8-NNQxUWs60Eh-12" edge="1">
          <mxGeometry width="50" height="50" relative="1" as="geometry">
            <mxPoint x="650" y="710" as="sourcePoint" />
            <mxPoint x="700" y="660" as="targetPoint" />
          </mxGeometry>
        </mxCell>
        <mxCell id="40LrFBO8-NNQxUWs60Eh-29" value="" style="endArrow=none;html=1;rounded=0;entryX=0;entryY=1;entryDx=0;entryDy=0;exitX=0.682;exitY=0;exitDx=0;exitDy=0;exitPerimeter=0;" parent="1" source="40LrFBO8-NNQxUWs60Eh-13" target="40LrFBO8-NNQxUWs60Eh-12" edge="1">
          <mxGeometry width="50" height="50" relative="1" as="geometry">
            <mxPoint x="640" y="720" as="sourcePoint" />
            <mxPoint x="810" y="680" as="targetPoint" />
          </mxGeometry>
        </mxCell>
        <mxCell id="40LrFBO8-NNQxUWs60Eh-30" value="" style="endArrow=none;html=1;rounded=0;exitX=0.5;exitY=0;exitDx=0;exitDy=0;entryX=0.5;entryY=1;entryDx=0;entryDy=0;" parent="1" source="40LrFBO8-NNQxUWs60Eh-15" target="40LrFBO8-NNQxUWs60Eh-12" edge="1">
          <mxGeometry width="50" height="50" relative="1" as="geometry">
            <mxPoint x="645" y="760" as="sourcePoint" />
            <mxPoint x="804" y="707" as="targetPoint" />
          </mxGeometry>
        </mxCell>
        <mxCell id="40LrFBO8-NNQxUWs60Eh-31" value="" style="endArrow=none;html=1;rounded=0;exitX=0.5;exitY=0;exitDx=0;exitDy=0;entryX=0.5;entryY=1;entryDx=0;entryDy=0;" parent="1" source="40LrFBO8-NNQxUWs60Eh-16" target="40LrFBO8-NNQxUWs60Eh-12" edge="1">
          <mxGeometry width="50" height="50" relative="1" as="geometry">
            <mxPoint x="795" y="780" as="sourcePoint" />
            <mxPoint x="826" y="708" as="targetPoint" />
          </mxGeometry>
        </mxCell>
        <mxCell id="40LrFBO8-NNQxUWs60Eh-32" value="" style="endArrow=none;html=1;rounded=0;exitX=0;exitY=0.25;exitDx=0;exitDy=0;exitPerimeter=0;" parent="1" source="40LrFBO8-NNQxUWs60Eh-17" edge="1">
          <mxGeometry width="50" height="50" relative="1" as="geometry">
            <mxPoint x="935" y="780" as="sourcePoint" />
            <mxPoint x="910" y="700" as="targetPoint" />
          </mxGeometry>
        </mxCell>
        <mxCell id="40LrFBO8-NNQxUWs60Eh-33" value="" style="endArrow=none;html=1;rounded=0;exitX=0;exitY=0.5;exitDx=0;exitDy=0;entryX=1;entryY=1;entryDx=0;entryDy=0;" parent="1" source="40LrFBO8-NNQxUWs60Eh-18" target="40LrFBO8-NNQxUWs60Eh-12" edge="1">
          <mxGeometry width="50" height="50" relative="1" as="geometry">
            <mxPoint x="1010" y="760" as="sourcePoint" />
            <mxPoint x="923" y="710" as="targetPoint" />
          </mxGeometry>
        </mxCell>
        <mxCell id="MEUJpl1hwVJn83zFn7Ei-2" value="compra" style="rhombus;whiteSpace=wrap;html=1;fillColor=default;strokeColor=default;" parent="1" vertex="1">
          <mxGeometry x="530" y="130" width="110" height="100" as="geometry" />
        </mxCell>
        <mxCell id="MEUJpl1hwVJn83zFn7Ei-5" value="" style="endArrow=none;html=1;rounded=0;exitX=1;exitY=0.5;exitDx=0;exitDy=0;entryX=0;entryY=0.5;entryDx=0;entryDy=0;" parent="1" source="xP0yGyIXmFYPEQAslgDD-1" target="MEUJpl1hwVJn83zFn7Ei-2" edge="1">
          <mxGeometry width="50" height="50" relative="1" as="geometry">
            <mxPoint x="430" y="130" as="sourcePoint" />
            <mxPoint x="480" y="80" as="targetPoint" />
          </mxGeometry>
        </mxCell>
        <mxCell id="MEUJpl1hwVJn83zFn7Ei-6" value="" style="endArrow=none;html=1;rounded=0;exitX=0;exitY=0.5;exitDx=0;exitDy=0;entryX=1;entryY=0.5;entryDx=0;entryDy=0;" parent="1" source="xP0yGyIXmFYPEQAslgDD-25" target="MEUJpl1hwVJn83zFn7Ei-2" edge="1">
          <mxGeometry width="50" height="50" relative="1" as="geometry">
            <mxPoint x="380" y="110" as="sourcePoint" />
            <mxPoint x="570" y="120" as="targetPoint" />
          </mxGeometry>
        </mxCell>
        <mxCell id="MEUJpl1hwVJn83zFn7Ei-10" value="fecha_compra" style="ellipse;whiteSpace=wrap;html=1;fillColor=#b0e3e6;strokeColor=#0e8088;" parent="1" vertex="1">
          <mxGeometry x="460" y="55" width="120" height="40" as="geometry" />
        </mxCell>
        <mxCell id="MEUJpl1hwVJn83zFn7Ei-11" value="" style="endArrow=none;html=1;rounded=0;entryX=0.432;entryY=1.032;entryDx=0;entryDy=0;entryPerimeter=0;exitX=0.5;exitY=0;exitDx=0;exitDy=0;" parent="1" source="MEUJpl1hwVJn83zFn7Ei-2" target="MEUJpl1hwVJn83zFn7Ei-10" edge="1">
          <mxGeometry width="50" height="50" relative="1" as="geometry">
            <mxPoint x="520" y="340" as="sourcePoint" />
            <mxPoint x="570" y="290" as="targetPoint" />
          </mxGeometry>
        </mxCell>
        <mxCell id="MEUJpl1hwVJn83zFn7Ei-12" value="reparacion" style="rounded=0;whiteSpace=wrap;html=1;fillColor=#f8cecc;strokeColor=#b85450;" parent="1" vertex="1">
          <mxGeometry x="854" y="-32" width="120" height="60" as="geometry" />
        </mxCell>
        <mxCell id="MEUJpl1hwVJn83zFn7Ei-13" value="quien_realiza" style="ellipse;whiteSpace=wrap;html=1;fillColor=#f8cecc;strokeColor=#b85450;" parent="1" vertex="1">
          <mxGeometry x="774" y="-150" width="120" height="40" as="geometry" />
        </mxCell>
        <mxCell id="MEUJpl1hwVJn83zFn7Ei-14" value="precio" style="ellipse;whiteSpace=wrap;html=1;fillColor=#f8cecc;strokeColor=#b85450;" parent="1" vertex="1">
          <mxGeometry x="914" y="-150" width="120" height="40" as="geometry" />
        </mxCell>
        <mxCell id="MEUJpl1hwVJn83zFn7Ei-15" value="n_reparaciones" style="ellipse;whiteSpace=wrap;html=1;fillColor=#f8cecc;strokeColor=#b85450;" parent="1" vertex="1">
          <mxGeometry x="1034" y="-90" width="120" height="40" as="geometry" />
        </mxCell>
        <mxCell id="MEUJpl1hwVJn83zFn7Ei-16" value="&lt;b&gt;&lt;u&gt;id_reparaciones&lt;/u&gt;&lt;/b&gt;" style="ellipse;whiteSpace=wrap;html=1;fillColor=#f8cecc;strokeColor=#b85450;" parent="1" vertex="1">
          <mxGeometry x="670" y="-80" width="120" height="40" as="geometry" />
        </mxCell>
        <mxCell id="MEUJpl1hwVJn83zFn7Ei-17" value="" style="endArrow=none;html=1;rounded=0;exitX=0;exitY=0;exitDx=0;exitDy=0;entryX=1;entryY=0.5;entryDx=0;entryDy=0;fillColor=#f8cecc;strokeColor=#b85450;" parent="1" source="MEUJpl1hwVJn83zFn7Ei-12" target="MEUJpl1hwVJn83zFn7Ei-16" edge="1">
          <mxGeometry width="50" height="50" relative="1" as="geometry">
            <mxPoint x="584" y="68" as="sourcePoint" />
            <mxPoint x="634" y="18" as="targetPoint" />
          </mxGeometry>
        </mxCell>
        <mxCell id="MEUJpl1hwVJn83zFn7Ei-18" value="" style="endArrow=none;html=1;rounded=0;entryX=0.5;entryY=1;entryDx=0;entryDy=0;fillColor=#f8cecc;strokeColor=#b85450;" parent="1" target="MEUJpl1hwVJn83zFn7Ei-13" edge="1">
          <mxGeometry width="50" height="50" relative="1" as="geometry">
            <mxPoint x="914" y="-30" as="sourcePoint" />
            <mxPoint x="764" y="-42" as="targetPoint" />
            <Array as="points">
              <mxPoint x="914" y="-30" />
            </Array>
          </mxGeometry>
        </mxCell>
        <mxCell id="MEUJpl1hwVJn83zFn7Ei-19" value="" style="endArrow=none;html=1;rounded=0;exitX=0.5;exitY=0;exitDx=0;exitDy=0;entryX=0.5;entryY=1;entryDx=0;entryDy=0;fillColor=#f8cecc;strokeColor=#b85450;" parent="1" source="MEUJpl1hwVJn83zFn7Ei-12" target="MEUJpl1hwVJn83zFn7Ei-14" edge="1">
          <mxGeometry width="50" height="50" relative="1" as="geometry">
            <mxPoint x="884" y="-22" as="sourcePoint" />
            <mxPoint x="804" y="-82" as="targetPoint" />
          </mxGeometry>
        </mxCell>
        <mxCell id="MEUJpl1hwVJn83zFn7Ei-20" value="" style="endArrow=none;html=1;rounded=0;exitX=1;exitY=0;exitDx=0;exitDy=0;fillColor=#f8cecc;strokeColor=#b85450;" parent="1" source="MEUJpl1hwVJn83zFn7Ei-12" target="MEUJpl1hwVJn83zFn7Ei-15" edge="1">
          <mxGeometry width="50" height="50" relative="1" as="geometry">
            <mxPoint x="944" y="-22" as="sourcePoint" />
            <mxPoint x="964" y="-82" as="targetPoint" />
          </mxGeometry>
        </mxCell>
        <mxCell id="MEUJpl1hwVJn83zFn7Ei-21" value="necesita" style="rhombus;whiteSpace=wrap;html=1;fillColor=default;strokeColor=default;" parent="1" vertex="1">
          <mxGeometry x="870" y="90" width="80" height="80" as="geometry" />
        </mxCell>
        <mxCell id="MEUJpl1hwVJn83zFn7Ei-22" value="" style="endArrow=none;html=1;rounded=0;entryX=0.5;entryY=1;entryDx=0;entryDy=0;" parent="1" source="MEUJpl1hwVJn83zFn7Ei-21" target="MEUJpl1hwVJn83zFn7Ei-12" edge="1">
          <mxGeometry width="50" height="50" relative="1" as="geometry">
            <mxPoint x="564" y="108" as="sourcePoint" />
            <mxPoint x="614" y="58" as="targetPoint" />
          </mxGeometry>
        </mxCell>
        <mxCell id="MEUJpl1hwVJn83zFn7Ei-23" value="" style="endArrow=none;html=1;rounded=0;exitX=0.5;exitY=1;exitDx=0;exitDy=0;" parent="1" source="MEUJpl1hwVJn83zFn7Ei-21" target="xP0yGyIXmFYPEQAslgDD-25" edge="1">
          <mxGeometry width="50" height="50" relative="1" as="geometry">
            <mxPoint x="900" y="20" as="sourcePoint" />
            <mxPoint x="900" y="-80" as="targetPoint" />
          </mxGeometry>
        </mxCell>
        <mxCell id="MEUJpl1hwVJn83zFn7Ei-24" value="fecha_venta" style="ellipse;whiteSpace=wrap;html=1;fillColor=#b0e3e6;strokeColor=#0e8088;" parent="1" vertex="1">
          <mxGeometry x="405" y="395" width="120" height="40" as="geometry" />
        </mxCell>
        <mxCell id="MEUJpl1hwVJn83zFn7Ei-25" value="" style="endArrow=none;html=1;rounded=0;exitX=0.5;exitY=1;exitDx=0;exitDy=0;" parent="1" source="ZEQ501jP3F6nEjt9V1_3-26" target="MEUJpl1hwVJn83zFn7Ei-24" edge="1">
          <mxGeometry width="50" height="50" relative="1" as="geometry">
            <mxPoint x="595" y="240" as="sourcePoint" />
            <mxPoint x="502" y="156" as="targetPoint" />
          </mxGeometry>
        </mxCell>
        <mxCell id="MEUJpl1hwVJn83zFn7Ei-26" value="precio" style="ellipse;whiteSpace=wrap;html=1;fillColor=#b0e3e6;strokeColor=#0e8088;" parent="1" vertex="1">
          <mxGeometry x="610" y="55" width="120" height="35" as="geometry" />
        </mxCell>
        <mxCell id="MEUJpl1hwVJn83zFn7Ei-27" value="" style="endArrow=none;html=1;rounded=0;exitX=0.5;exitY=0;exitDx=0;exitDy=0;entryX=0;entryY=1;entryDx=0;entryDy=0;" parent="1" source="MEUJpl1hwVJn83zFn7Ei-2" target="MEUJpl1hwVJn83zFn7Ei-26" edge="1">
          <mxGeometry width="50" height="50" relative="1" as="geometry">
            <mxPoint x="612" y="252" as="sourcePoint" />
            <mxPoint x="644" y="155" as="targetPoint" />
          </mxGeometry>
        </mxCell>
        <mxCell id="MEUJpl1hwVJn83zFn7Ei-30" value="(0,N)" style="text;html=1;align=center;verticalAlign=middle;resizable=0;points=[];autosize=1;strokeColor=none;fillColor=none;" parent="1" vertex="1">
          <mxGeometry x="910" y="50" width="50" height="30" as="geometry" />
        </mxCell>
        <mxCell id="MEUJpl1hwVJn83zFn7Ei-31" value="(1,1)" style="text;html=1;align=center;verticalAlign=middle;resizable=0;points=[];autosize=1;strokeColor=none;fillColor=none;" parent="1" vertex="1">
          <mxGeometry x="910" y="190" width="50" height="30" as="geometry" />
        </mxCell>
        <mxCell id="MEUJpl1hwVJn83zFn7Ei-32" value="(0,N)" style="text;html=1;align=center;verticalAlign=middle;resizable=0;points=[];autosize=1;strokeColor=none;fillColor=none;" parent="1" vertex="1">
          <mxGeometry x="745" y="195" width="50" height="30" as="geometry" />
        </mxCell>
        <mxCell id="MEUJpl1hwVJn83zFn7Ei-33" value="(0,N)" style="text;html=1;align=center;verticalAlign=middle;resizable=0;points=[];autosize=1;strokeColor=none;fillColor=none;" parent="1" vertex="1">
          <mxGeometry x="415" y="200" width="50" height="30" as="geometry" />
        </mxCell>
        <mxCell id="ZEQ501jP3F6nEjt9V1_3-1" value="hacen" style="rhombus;whiteSpace=wrap;html=1;" parent="1" vertex="1">
          <mxGeometry x="1275" y="250" width="80" height="80" as="geometry" />
        </mxCell>
        <mxCell id="ZEQ501jP3F6nEjt9V1_3-2" value="" style="endArrow=none;html=1;rounded=0;exitX=1;exitY=0.5;exitDx=0;exitDy=0;entryX=0.5;entryY=1;entryDx=0;entryDy=0;" parent="1" source="40LrFBO8-NNQxUWs60Eh-12" target="ZEQ501jP3F6nEjt9V1_3-1" edge="1">
          <mxGeometry width="50" height="50" relative="1" as="geometry">
            <mxPoint x="930" y="150" as="sourcePoint" />
            <mxPoint x="980" y="100" as="targetPoint" />
            <Array as="points">
              <mxPoint x="1310" y="660" />
            </Array>
          </mxGeometry>
        </mxCell>
        <mxCell id="ZEQ501jP3F6nEjt9V1_3-3" value="" style="endArrow=none;html=1;rounded=0;entryX=1;entryY=0.5;entryDx=0;entryDy=0;exitX=0.5;exitY=0;exitDx=0;exitDy=0;" parent="1" source="ZEQ501jP3F6nEjt9V1_3-1" target="MEUJpl1hwVJn83zFn7Ei-12" edge="1">
          <mxGeometry width="50" height="50" relative="1" as="geometry">
            <mxPoint x="930" y="150" as="sourcePoint" />
            <mxPoint x="980" y="100" as="targetPoint" />
            <Array as="points">
              <mxPoint x="1315" />
            </Array>
          </mxGeometry>
        </mxCell>
        <mxCell id="ZEQ501jP3F6nEjt9V1_3-4" value="(0,N)" style="text;html=1;strokeColor=none;fillColor=none;align=center;verticalAlign=middle;whiteSpace=wrap;rounded=0;" parent="1" vertex="1">
          <mxGeometry x="1310" y="190" width="60" height="40" as="geometry" />
        </mxCell>
        <mxCell id="ZEQ501jP3F6nEjt9V1_3-5" value="(1,N)" style="text;html=1;strokeColor=none;fillColor=none;align=center;verticalAlign=middle;whiteSpace=wrap;rounded=0;" parent="1" vertex="1">
          <mxGeometry x="1310" y="420" width="60" height="40" as="geometry" />
        </mxCell>
        <mxCell id="ZEQ501jP3F6nEjt9V1_3-6" value="vende" style="rhombus;whiteSpace=wrap;html=1;" parent="1" vertex="1">
          <mxGeometry x="880" y="430" width="80" height="80" as="geometry" />
        </mxCell>
        <mxCell id="ZEQ501jP3F6nEjt9V1_3-7" value="Compra" style="rhombus;whiteSpace=wrap;html=1;" parent="1" vertex="1">
          <mxGeometry x="730" y="430" width="80" height="80" as="geometry" />
        </mxCell>
        <mxCell id="ZEQ501jP3F6nEjt9V1_3-8" value="" style="endArrow=none;html=1;rounded=0;entryX=0.5;entryY=1;entryDx=0;entryDy=0;exitX=0.5;exitY=0;exitDx=0;exitDy=0;" parent="1" source="40LrFBO8-NNQxUWs60Eh-12" target="ZEQ501jP3F6nEjt9V1_3-7" edge="1">
          <mxGeometry width="50" height="50" relative="1" as="geometry">
            <mxPoint x="510" y="420" as="sourcePoint" />
            <mxPoint x="560" y="370" as="targetPoint" />
          </mxGeometry>
        </mxCell>
        <mxCell id="ZEQ501jP3F6nEjt9V1_3-9" value="" style="endArrow=none;html=1;rounded=0;entryX=0.5;entryY=0;entryDx=0;entryDy=0;exitX=0;exitY=1;exitDx=0;exitDy=0;" parent="1" source="xP0yGyIXmFYPEQAslgDD-25" target="ZEQ501jP3F6nEjt9V1_3-7" edge="1">
          <mxGeometry width="50" height="50" relative="1" as="geometry">
            <mxPoint x="510" y="420" as="sourcePoint" />
            <mxPoint x="560" y="370" as="targetPoint" />
          </mxGeometry>
        </mxCell>
        <mxCell id="ZEQ501jP3F6nEjt9V1_3-10" value="" style="endArrow=none;html=1;rounded=0;entryX=0.5;entryY=0;entryDx=0;entryDy=0;" parent="1" target="ZEQ501jP3F6nEjt9V1_3-6" edge="1">
          <mxGeometry width="50" height="50" relative="1" as="geometry">
            <mxPoint x="850" y="300" as="sourcePoint" />
            <mxPoint x="760" y="375" as="targetPoint" />
          </mxGeometry>
        </mxCell>
        <mxCell id="ZEQ501jP3F6nEjt9V1_3-11" value="" style="endArrow=none;html=1;rounded=0;entryX=0.5;entryY=1;entryDx=0;entryDy=0;exitX=0.5;exitY=0;exitDx=0;exitDy=0;" parent="1" source="40LrFBO8-NNQxUWs60Eh-12" target="ZEQ501jP3F6nEjt9V1_3-6" edge="1">
          <mxGeometry width="50" height="50" relative="1" as="geometry">
            <mxPoint x="600" y="550" as="sourcePoint" />
            <mxPoint x="680" y="375" as="targetPoint" />
          </mxGeometry>
        </mxCell>
        <mxCell id="ZEQ501jP3F6nEjt9V1_3-12" value="(1,N)" style="text;html=1;align=center;verticalAlign=middle;resizable=0;points=[];autosize=1;strokeColor=none;fillColor=none;" parent="1" vertex="1">
          <mxGeometry x="740" y="540" width="50" height="30" as="geometry" />
        </mxCell>
        <mxCell id="ZEQ501jP3F6nEjt9V1_3-13" value="(0,N)" style="text;html=1;align=center;verticalAlign=middle;resizable=0;points=[];autosize=1;strokeColor=none;fillColor=none;" parent="1" vertex="1">
          <mxGeometry x="745" y="372.5" width="50" height="30" as="geometry" />
        </mxCell>
        <mxCell id="ZEQ501jP3F6nEjt9V1_3-14" value="(0,N)" style="text;html=1;align=center;verticalAlign=middle;resizable=0;points=[];autosize=1;strokeColor=none;fillColor=none;" parent="1" vertex="1">
          <mxGeometry x="900" y="372.5" width="50" height="30" as="geometry" />
        </mxCell>
        <mxCell id="ZEQ501jP3F6nEjt9V1_3-15" value="(0,N)" style="text;html=1;align=center;verticalAlign=middle;resizable=0;points=[];autosize=1;strokeColor=none;fillColor=none;" parent="1" vertex="1">
          <mxGeometry x="900" y="540" width="50" height="30" as="geometry" />
        </mxCell>
        <mxCell id="ZEQ501jP3F6nEjt9V1_3-26" value="vende" style="rhombus;whiteSpace=wrap;html=1;fillColor=default;strokeColor=default;" parent="1" vertex="1">
          <mxGeometry x="530" y="250" width="110" height="100" as="geometry" />
        </mxCell>
        <mxCell id="ZEQ501jP3F6nEjt9V1_3-27" value="" style="endArrow=none;html=1;rounded=0;exitX=1;exitY=0.5;exitDx=0;exitDy=0;entryX=0;entryY=0.5;entryDx=0;entryDy=0;" parent="1" source="xP0yGyIXmFYPEQAslgDD-1" target="ZEQ501jP3F6nEjt9V1_3-26" edge="1">
          <mxGeometry width="50" height="50" relative="1" as="geometry">
            <mxPoint x="400" y="280" as="sourcePoint" />
            <mxPoint x="530" y="260" as="targetPoint" />
          </mxGeometry>
        </mxCell>
        <mxCell id="ZEQ501jP3F6nEjt9V1_3-29" value="" style="endArrow=none;html=1;rounded=0;entryX=1;entryY=0.5;entryDx=0;entryDy=0;" parent="1" target="ZEQ501jP3F6nEjt9V1_3-26" edge="1">
          <mxGeometry width="50" height="50" relative="1" as="geometry">
            <mxPoint x="850" y="270" as="sourcePoint" />
            <mxPoint x="640" y="260" as="targetPoint" />
          </mxGeometry>
        </mxCell>
        <mxCell id="ZEQ501jP3F6nEjt9V1_3-30" value="precio" style="ellipse;whiteSpace=wrap;html=1;fillColor=#b0e3e6;strokeColor=#0e8088;" parent="1" vertex="1">
          <mxGeometry x="540" y="400" width="120" height="35" as="geometry" />
        </mxCell>
        <mxCell id="ZEQ501jP3F6nEjt9V1_3-31" value="" style="endArrow=none;html=1;rounded=0;exitX=0.5;exitY=1;exitDx=0;exitDy=0;entryX=0.5;entryY=0;entryDx=0;entryDy=0;" parent="1" source="ZEQ501jP3F6nEjt9V1_3-26" target="ZEQ501jP3F6nEjt9V1_3-30" edge="1">
          <mxGeometry width="50" height="50" relative="1" as="geometry">
            <mxPoint x="595" y="360" as="sourcePoint" />
            <mxPoint x="527" y="369" as="targetPoint" />
          </mxGeometry>
        </mxCell>
        <mxCell id="ZEQ501jP3F6nEjt9V1_3-32" value="(0,N)" style="text;html=1;align=center;verticalAlign=middle;resizable=0;points=[];autosize=1;strokeColor=none;fillColor=none;" parent="1" vertex="1">
          <mxGeometry x="720" y="290" width="50" height="30" as="geometry" />
        </mxCell>
        <mxCell id="ZEQ501jP3F6nEjt9V1_3-33" value="(1,N)" style="text;html=1;align=center;verticalAlign=middle;resizable=0;points=[];autosize=1;strokeColor=none;fillColor=none;" parent="1" vertex="1">
          <mxGeometry x="440" y="295" width="50" height="30" as="geometry" />
        </mxCell>
      </root>
    </mxGraphModel>
  </diagram>
</mxfile>
